<?xml version="1.0" ?><svg height="64" viewBox="0 0 64 64" width="64" xmlns="http://www.w3.org/2000/svg"><title/><g><g><path d="M18.84,35.874a13.16,13.16,0,1,1,26.32,0Z" fill="#efa23c"/><path d="M29.542,26.221a13.112,13.112,0,0,0-9.383,3.939,13.076,13.076,0,0,0-1.319,5.714H42.215A13.156,13.156,0,0,0,29.542,26.221Z" fill="#ffb85a"/><path d="M18.84,35.874a13.16,13.16,0,1,1,26.32,0Z" fill="none" stroke="#231f20" stroke-linecap="round" stroke-linejoin="round" stroke-width="2"/><path d="M38.956,30.117a8.409,8.409,0,0,1,1.076,2.15" fill="none" stroke="#fff" stroke-linecap="round" stroke-linejoin="round" stroke-width="2"/><path d="M32,26.474a8.428,8.428,0,0,1,4.6,1.355" fill="none" stroke="#fff" stroke-linecap="round" stroke-linejoin="round" stroke-width="2"/><g><rect fill="#e1c78f" height="19.207" width="26.32" x="18.84" y="35.874"/><rect fill="#ffeab5" height="19.207" width="23.433" x="18.84" y="35.874"/><rect fill="none" height="19.207" stroke="#231f20" stroke-linecap="round" stroke-linejoin="round" stroke-width="2" width="26.32" x="18.84" y="35.874"/></g><path d="M31.677,40.962h.645a3.648,3.648,0,0,1,3.648,3.648V55.08a0,0,0,0,1,0,0H28.029a0,0,0,0,1,0,0V44.61A3.648,3.648,0,0,1,31.677,40.962Z" fill="#c69640"/><path d="M33.624,46.213a3.889,3.889,0,0,0-4.579-3.91,3.944,3.944,0,0,0-1.016,2.63V55.08h5.6Z" fill="#cea34d"/><path d="M31.677,40.962h.645a3.648,3.648,0,0,1,3.648,3.648V55.08a0,0,0,0,1,0,0H28.029a0,0,0,0,1,0,0V44.61A3.648,3.648,0,0,1,31.677,40.962Z" fill="none" stroke="#231f20" stroke-linecap="round" stroke-linejoin="round" stroke-width="2"/><g><g><path d="M38.177,40.521a2.206,2.206,0,1,1,4.412,0v3.291h-4.42Z" fill="#97e1f7"/><path d="M39.351,38.583a2.195,2.195,0,0,0-1.174,1.938l-.008,3.291h2.356V40.521A2.2,2.2,0,0,0,39.351,38.583Z" fill="#b0e8ff"/><path d="M38.177,40.521a2.206,2.206,0,1,1,4.412,0v3.291h-4.42Z" fill="none" stroke="#231f20" stroke-linecap="round" stroke-linejoin="round" stroke-width="2"/></g><g><path d="M21.271,40.521a2.206,2.206,0,1,1,4.412,0v3.291h-4.42Z" fill="#97e1f7"/><path d="M22.445,38.583a2.2,2.2,0,0,0-1.174,1.938l-.008,3.291h2.356V40.521A2.2,2.2,0,0,0,22.445,38.583Z" fill="#b0e8ff"/><path d="M21.271,40.521a2.206,2.206,0,1,1,4.412,0v3.291h-4.42Z" fill="none" stroke="#231f20" stroke-linecap="round" stroke-linejoin="round" stroke-width="2"/></g></g><polygon fill="#fff578" points="39.717 7.668 40.775 9.813 43.142 10.157 41.429 11.826 41.834 14.184 39.717 13.071 37.6 14.184 38.004 11.826 36.291 10.157 38.658 9.813 39.717 7.668"/><g><path d="M32.421,11.637a6.44,6.44,0,0,1,2.657-5.211,6.452,6.452,0,1,0,2.9,11.6A6.449,6.449,0,0,1,32.421,11.637Z" fill="#ffef5c"/><path d="M32.421,11.637a6.44,6.44,0,0,1,2.657-5.211,6.452,6.452,0,1,0,2.9,11.6A6.449,6.449,0,0,1,32.421,11.637Z" fill="none" stroke="#231f20" stroke-linecap="round" stroke-linejoin="round" stroke-width="2"/><line fill="none" stroke="#231f20" stroke-linecap="round" stroke-linejoin="round" stroke-width="2" x1="32.377" x2="32.377" y1="19.265" y2="22.714"/></g><polygon fill="none" points="39.717 7.668 40.775 9.813 43.142 10.157 41.429 11.826 41.834 14.184 39.717 13.071 37.6 14.184 38.004 11.826 36.291 10.157 38.658 9.813 39.717 7.668" stroke="#231f20" stroke-linecap="round" stroke-linejoin="round" stroke-width="2"/></g><g><g><path d="M48.955,22.653a4.864,4.864,0,1,1,9.728,0Z" fill="#efa23c"/><path d="M52.91,19.085a4.849,4.849,0,0,0-3.468,1.456,4.84,4.84,0,0,0-.487,2.112h8.639A4.862,4.862,0,0,0,52.91,19.085Z" fill="#ffb85a"/><path d="M48.955,22.653a4.864,4.864,0,1,1,9.728,0Z" fill="none" stroke="#231f20" stroke-linecap="round" stroke-linejoin="round" stroke-width="2"/><rect fill="#e1c78f" height="25.942" width="6.485" x="50.576" y="25.896"/><rect fill="#ffeab5" height="25.942" width="4.053" x="50.576" y="25.896"/><rect fill="none" height="25.942" stroke="#231f20" stroke-linecap="round" stroke-linejoin="round" stroke-width="2" width="6.485" x="50.576" y="25.896"/><rect fill="#8a5d3b" height="3.243" width="9.728" x="48.955" y="51.838"/><rect fill="#a87c4f" height="3.243" width="5.675" x="48.955" y="51.838"/><rect fill="none" height="3.243" stroke="#231f20" stroke-linecap="round" stroke-linejoin="round" stroke-width="2" width="9.728" x="48.955" y="51.838"/><rect fill="#8a5d3b" height="3.243" width="9.728" x="48.955" y="22.653"/><rect fill="#a87c4f" height="3.243" width="5.675" x="48.955" y="22.653"/><rect fill="none" height="3.243" stroke="#231f20" stroke-linecap="round" stroke-linejoin="round" stroke-width="2" width="9.728" x="48.955" y="22.653"/><line fill="none" stroke="#231f20" stroke-linecap="round" stroke-linejoin="round" stroke-width="2" x1="53.819" x2="53.819" y1="17.789" y2="12.88"/></g><g><path d="M5.317,22.653a4.864,4.864,0,0,1,9.728,0Z" fill="#efa23c"/><path d="M9.272,19.085a4.845,4.845,0,0,0-3.467,1.456,4.827,4.827,0,0,0-.488,2.112h8.64A4.863,4.863,0,0,0,9.272,19.085Z" fill="#ffb85a"/><path d="M5.317,22.653a4.864,4.864,0,0,1,9.728,0Z" fill="none" stroke="#231f20" stroke-linecap="round" stroke-linejoin="round" stroke-width="2"/><rect fill="#e1c78f" height="25.942" width="6.485" x="6.938" y="25.896"/><rect fill="#ffeab5" height="25.942" width="4.053" x="6.938" y="25.896"/><rect fill="none" height="25.942" stroke="#231f20" stroke-linecap="round" stroke-linejoin="round" stroke-width="2" width="6.485" x="6.938" y="25.896"/><rect fill="#8a5d3b" height="3.243" width="9.728" x="5.317" y="51.838"/><rect fill="#a87c4f" height="3.243" width="5.675" x="5.317" y="51.838"/><rect fill="none" height="3.243" stroke="#231f20" stroke-linecap="round" stroke-linejoin="round" stroke-width="2" width="9.728" x="5.317" y="51.838"/><rect fill="#8a5d3b" height="3.243" width="9.728" x="5.317" y="22.653"/><rect fill="#a87c4f" height="3.243" width="5.675" x="5.317" y="22.653"/><rect fill="none" height="3.243" stroke="#231f20" stroke-linecap="round" stroke-linejoin="round" stroke-width="2" width="9.728" x="5.317" y="22.653"/><line fill="none" stroke="#231f20" stroke-linecap="round" stroke-linejoin="round" stroke-width="2" x1="10.181" x2="10.181" y1="17.789" y2="12.88"/></g></g></g></svg>